<?xml version="1.0" standalone="no"?>
<!DOCTYPE svg PUBLIC "-//W3C//DTD SVG 20010904//EN"
 "http://www.w3.org/TR/2001/REC-SVG-20010904/DTD/svg10.dtd">
<svg version="1.0" xmlns="http://www.w3.org/2000/svg"
 width="264.000000pt" height="264.000000pt" viewBox="0 0 264.000000 264.000000"
 preserveAspectRatio="xMidYMid meet">
<metadata>
Created by potrace 1.11, written by Peter Selinger 2001-2013
</metadata>
<g transform="translate(0.000000,264.000000) scale(0.100000,-0.100000)"
fill="#000000" stroke="none">
<path d="M1395 2601 c-22 -11 -62 -45 -89 -76 -64 -74 -118 -100 -193 -91
l-54 6 56 -67 c31 -38 70 -98 88 -134 36 -74 58 -86 130 -70 46 11 72 28 144
93 93 84 156 100 194 47 21 -30 22 -33 7 -98 -70 -303 -82 -346 -111 -398
l-32 -55 -6 51 c-10 76 -68 141 -126 141 -32 0 -79 -37 -98 -75 -17 -37 -17
-39 6 -94 32 -79 68 -123 97 -118 39 7 34 -12 -6 -22 -21 -6 -49 -20 -61 -30
-36 -31 -172 -42 -354 -30 -70 5 -93 11 -109 26 -18 18 -18 23 -5 54 49 117
64 414 23 444 -38 28 -197 58 -311 58 -170 0 -360 -50 -370 -97 -12 -61 -12
-101 1 -202 15 -122 46 -217 96 -302 61 -103 217 -242 272 -242 45 0 145 86
202 173 30 46 43 46 153 3 79 -32 97 -35 226 -40 197 -7 217 -11 256 -53 l34
-35 -25 -16 c-49 -32 -77 -72 -94 -130 -9 -32 -16 -70 -16 -84 0 -13 -10 -44
-22 -67 -20 -37 -31 -45 -90 -65 -77 -27 -124 -62 -202 -148 l-55 -60 -49 7
c-51 7 -82 -8 -82 -40 0 -14 -86 -95 -101 -95 -4 0 -20 -5 -36 -11 -27 -10
-27 -11 -9 -25 11 -8 31 -14 44 -14 47 0 161 41 214 76 58 40 181 104 198 104
7 0 7 -6 0 -20 -6 -12 -18 -60 -26 -108 -17 -96 -53 -172 -83 -172 -29 0 -40
-22 -47 -91 -4 -35 -15 -86 -25 -112 -11 -26 -19 -56 -19 -67 0 -27 22 -37 34
-15 6 10 35 45 64 79 34 38 77 107 116 186 70 139 128 238 190 320 23 30 52
71 64 91 12 20 40 49 62 64 81 56 167 159 217 262 l48 98 -1 125 c-1 100 -5
136 -21 181 -18 48 -19 66 -13 140 5 46 15 102 23 124 8 22 18 86 22 142 6 92
9 104 30 117 23 15 25 14 134 -134 118 -159 139 -177 221 -187 91 -11 228 76
271 171 24 54 23 101 -4 155 -33 68 -65 86 -145 85 -120 -1 -227 -73 -255
-170 l-14 -48 -76 102 c-43 57 -77 108 -78 115 -1 25 -36 72 -55 75 -13 2 -60
59 -130 157 l-109 155 -45 0 c-25 0 -63 -9 -85 -19z m-625 -651 c26 -26 26
-60 0 -60 -10 0 -42 5 -70 11 -55 12 -64 28 -28 53 31 22 74 20 98 -4z m-312
-25 c2 -17 -6 -22 -53 -33 -57 -14 -75 -10 -75 13 0 29 31 46 79 43 37 -2 47
-7 49 -23z m96 -240 c102 0 115 2 160 27 l48 28 -7 -38 c-4 -20 -11 -39 -16
-40 -5 -2 -18 -21 -29 -41 -21 -42 -65 -61 -142 -61 -87 0 -164 46 -194 117
-25 58 -19 66 28 36 39 -26 48 -28 152 -28z"/>
<path d="M1669 825 c-20 -66 -8 -82 28 -36 23 29 29 31 84 31 l59 0 -2 -167
-3 -166 -34 -12 c-67 -22 -44 -31 79 -32 89 -1 120 2 117 10 -2 7 -17 14 -33
17 l-29 5 -3 173 -2 172 50 0 c48 0 51 -2 67 -35 27 -56 43 -45 43 30 0 49 -3
65 -14 65 -8 0 -16 -4 -18 -9 -1 -4 -76 -11 -165 -14 -133 -5 -164 -3 -174 9
-21 25 -34 15 -50 -41z"/>
<path d="M2286 863 c-43 -12 -96 -55 -120 -96 -66 -113 -31 -247 78 -302 42
-21 64 -25 135 -25 102 0 132 12 143 58 16 63 7 70 -37 31 -52 -47 -80 -61
-120 -61 -75 0 -122 54 -132 156 -12 116 46 216 125 216 39 0 98 -30 120 -61
7 -11 20 -19 29 -19 13 0 15 8 10 41 -3 23 -10 46 -16 52 -12 12 -182 20 -215
10z"/>
<path d="M252 150 c-100 -23 -30 -50 132 -50 l109 0 -24 -26 c-24 -25 -24 -26
-4 -40 30 -22 994 -15 1147 8 59 10 118 22 130 29 16 9 125 15 368 20 323 7
400 14 400 37 0 25 -222 28 -510 8 -272 -19 -1153 -11 -1158 10 -3 12 -49 14
-280 13 -152 -1 -292 -5 -310 -9z"/>
</g>
</svg>
